<svg xmlns="http://www.w3.org/2000/svg" viewBox="0 0 512 512">
  <rect width="512" height="512" rx="100" fill="#1a1a2e"/>
  <rect x="80" y="180" width="12" height="152" fill="#e94560"/>
  <rect x="104" y="180" width="8" height="152" fill="#e94560"/>
  <rect x="120" y="180" width="16" height="152" fill="#e94560"/>
  <rect x="144" y="180" width="8" height="152" fill="#e94560"/>
  <rect x="160" y="180" width="4" height="152" fill="#e94560"/>
  <rect x="172" y="180" width="12" height="152" fill="#e94560"/>
  <rect x="192" y="180" width="8" height="152" fill="#e94560"/>
  <rect x="208" y="180" width="16" height="152" fill="#e94560"/>
  <rect x="232" y="180" width="8" height="152" fill="#e94560"/>
  <rect x="248" y="180" width="4" height="152" fill="#e94560"/>
  <rect x="260" y="180" width="12" height="152" fill="#e94560"/>
  <rect x="280" y="180" width="8" height="152" fill="#e94560"/>
  <rect x="296" y="180" width="16" height="152" fill="#e94560"/>
  <rect x="320" y="180" width="8" height="152" fill="#e94560"/>
  <rect x="340" y="180" width="12" height="152" fill="#e94560"/>
  <rect x="360" y="180" width="8" height="152" fill="#e94560"/>
  <rect x="380" y="180" width="16" height="152" fill="#e94560"/>
  <rect x="408" y="180" width="8" height="152" fill="#e94560"/>
  <rect x="80" y="140" width="336" height="6" rx="3" fill="#404060"/>
  <rect x="80" y="350" width="336" height="6" rx="3" fill="#404060"/>
  <path d="M120 100 L200 100 L180 140 Z" fill="#e94560"/>
  <path d="M392 100 L312 100 L332 140 Z" fill="#e94560"/>
  <path d="M120 372 L200 372 L180 332 Z" fill="#e94560"/>
  <path d="M392 372 L312 372 L332 332 Z" fill="#e94560"/>
</svg>
